<svg width="27" height="42" viewBox="0 0 27 42" fill="none" xmlns="http://www.w3.org/2000/svg">
<path d="M0.601019 0.489287C0.215711 0.809166 0 1.23858 0 1.68573C0 2.13288 0.215711 2.56229 0.601019 2.88217L22.1277 20.7894L0.601019 38.693C0.215711 39.0129 0 39.4423 0 39.8895C0 40.3366 0.215711 40.766 0.601019 41.0859C0.788306 41.2419 1.01223 41.3659 1.25957 41.4505C1.50692 41.5352 1.77266 41.5788 2.04114 41.5788C2.30961 41.5788 2.57536 41.5352 2.8227 41.4505C3.07004 41.3659 3.29397 41.2419 3.48125 41.0859L26.3729 22.0396C26.775 21.7051 27 21.2565 27 20.7894C27 20.3223 26.775 19.8737 26.3729 19.5392L3.48125 0.49287C3.29397 0.33689 3.07004 0.212916 2.8227 0.128264C2.57536 0.0436128 2.30961 0 2.04114 0C1.77266 0 1.50692 0.0436128 1.25957 0.128264C1.01223 0.212916 0.788306 0.33689 0.601019 0.49287V0.489287Z" fill="#BFC1C7"/>
</svg>
